# xmcd
#
# Track frame offsets: 
#        150
#        13555
#        27588
#        45035
#        63013
#        78705
#        97428
#        115480
#        132478
#        148908
#
# Disc length: 2238 seconds
#
# Revision: 5
# Processed by: cddbd v1.5.2PL0 Copyright (c) Steve Scherf et al.
# Submitted via: ExactAudioCopy v0.99pb4
#
DISCID=8d08bc0a
DTITLE=Various Artist - Billboard Top R&B Hits - 1970
DYEAR=1989
DGENRE=R&B
TTITLE0=Tyrone Davis - Turn Back The Hands Of Time
TTITLE1=Jackson Five - The Love You Save
TTITLE2=Brook Benton - Rainy Night In Georgia
TTITLE3=Diana Ross - Ain't No Mountain High Enough
TTITLE4=Moments - Love On A Two-Way Street
TTITLE5=Temptations - Ball Of Confusion (That's What The World Is Toda
TTITLE5=y)
TTITLE6=Jackson Five - I'll Be There
TTITLE7=Supremes - Stoned Love
TTITLE8=Jr. Walker And The All Stars - Gotta Hold On To This Feeling
TTITLE9=James Brown - Super Bad
EXTD=
EXTT0=Tyrone Davis\n
EXTT1=The Jackson 5\n
EXTT2=Brook Benton\n
EXTT3=Diana Ross\n
EXTT4=The Moments\n
EXTT5=The Temptations\n
EXTT6=The Jackson 5\n
EXTT7=The Supremes\n
EXTT8=Jr. Walker and The All Stars\n
EXTT9=James Brown\n
PLAYORDER=
